<svg width="319" height="255" viewBox="0 0 319 255" fill="none" xmlns="http://www.w3.org/2000/svg">
<path d="M0.744 232.582C0.744 231.206 0.968 230.134 1.416 229.366C1.864 228.59 2.648 228.202 3.768 228.202C4.88 228.202 5.66 228.59 6.108 229.366C6.556 230.134 6.78 231.206 6.78 232.582C6.78 233.982 6.556 235.07 6.108 235.846C5.66 236.622 4.88 237.01 3.768 237.01C2.648 237.01 1.864 236.622 1.416 235.846C0.968 235.07 0.744 233.982 0.744 232.582ZM5.7 232.582C5.7 231.886 5.652 231.298 5.556 230.818C5.468 230.33 5.28 229.938 4.992 229.642C4.712 229.346 4.304 229.198 3.768 229.198C3.224 229.198 2.808 229.346 2.52 229.642C2.24 229.938 2.052 230.33 1.956 230.818C1.868 231.298 1.824 231.886 1.824 232.582C1.824 233.302 1.868 233.906 1.956 234.394C2.052 234.882 2.24 235.274 2.52 235.57C2.808 235.866 3.224 236.014 3.768 236.014C4.304 236.014 4.712 235.866 4.992 235.57C5.28 235.274 5.468 234.882 5.556 234.394C5.652 233.906 5.7 233.302 5.7 232.582Z" fill="#828282"/>
<path d="M0.456 191.995V190.999H2.712V199.675H1.608V191.995H0.456ZM4.38775 195.247C4.38775 193.871 4.61175 192.799 5.05975 192.031C5.50775 191.255 6.29175 190.867 7.41175 190.867C8.52375 190.867 9.30375 191.255 9.75175 192.031C10.1997 192.799 10.4237 193.871 10.4237 195.247C10.4237 196.647 10.1997 197.735 9.75175 198.511C9.30375 199.287 8.52375 199.675 7.41175 199.675C6.29175 199.675 5.50775 199.287 5.05975 198.511C4.61175 197.735 4.38775 196.647 4.38775 195.247ZM9.34375 195.247C9.34375 194.551 9.29575 193.963 9.19975 193.483C9.11175 192.995 8.92375 192.603 8.63575 192.307C8.35575 192.011 7.94775 191.863 7.41175 191.863C6.86775 191.863 6.45175 192.011 6.16375 192.307C5.88375 192.603 5.69575 192.995 5.59975 193.483C5.51175 193.963 5.46775 194.551 5.46775 195.247C5.46775 195.967 5.51175 196.571 5.59975 197.059C5.69575 197.547 5.88375 197.939 6.16375 198.235C6.45175 198.531 6.86775 198.679 7.41175 198.679C7.94775 198.679 8.35575 198.531 8.63575 198.235C8.92375 197.939 9.11175 197.547 9.19975 197.059C9.29575 196.571 9.34375 195.967 9.34375 195.247ZM15.5749 199.675L12.9949 196.771V199.675H11.9029V190.795H12.9949V196.015L15.5269 193.099H17.0509L13.9549 196.375L17.0629 199.675H15.5749Z" fill="#828282"/>
<path d="M0.612 161.464C1.628 160.648 2.424 159.98 3 159.46C3.576 158.932 4.06 158.384 4.452 157.816C4.852 157.24 5.052 156.676 5.052 156.124C5.052 155.604 4.924 155.196 4.668 154.9C4.42 154.596 4.016 154.444 3.456 154.444C2.912 154.444 2.488 154.616 2.184 154.96C1.888 155.296 1.728 155.748 1.704 156.316H0.648C0.68 155.42 0.952 154.728 1.464 154.24C1.976 153.752 2.636 153.508 3.444 153.508C4.268 153.508 4.92 153.736 5.4 154.192C5.888 154.648 6.132 155.276 6.132 156.076C6.132 156.74 5.932 157.388 5.532 158.02C5.14 158.644 4.692 159.196 4.188 159.676C3.684 160.148 3.04 160.7 2.256 161.332H6.384V162.244H0.612V161.464ZM7.44634 157.912C7.44634 156.536 7.67034 155.464 8.11834 154.696C8.56634 153.92 9.35034 153.532 10.4703 153.532C11.5823 153.532 12.3623 153.92 12.8103 154.696C13.2583 155.464 13.4823 156.536 13.4823 157.912C13.4823 159.312 13.2583 160.4 12.8103 161.176C12.3623 161.952 11.5823 162.34 10.4703 162.34C9.35034 162.34 8.56634 161.952 8.11834 161.176C7.67034 160.4 7.44634 159.312 7.44634 157.912ZM12.4023 157.912C12.4023 157.216 12.3543 156.628 12.2583 156.148C12.1703 155.66 11.9823 155.268 11.6943 154.972C11.4143 154.676 11.0063 154.528 10.4703 154.528C9.92634 154.528 9.51034 154.676 9.22234 154.972C8.94234 155.268 8.75434 155.66 8.65834 156.148C8.57034 156.628 8.52634 157.216 8.52634 157.912C8.52634 158.632 8.57034 159.236 8.65834 159.724C8.75434 160.212 8.94234 160.604 9.22234 160.9C9.51034 161.196 9.92634 161.344 10.4703 161.344C11.0063 161.344 11.4143 161.196 11.6943 160.9C11.9823 160.604 12.1703 160.212 12.2583 159.724C12.3543 159.236 12.4023 158.632 12.4023 157.912ZM18.6335 162.34L16.0535 159.436V162.34H14.9615V153.46H16.0535V158.68L18.5855 155.764H20.1095L17.0135 159.04L20.1215 162.34H18.6335Z" fill="#828282"/>
<path d="M0.72 118.512C0.776 117.776 1.06 117.2 1.572 116.784C2.084 116.368 2.748 116.16 3.564 116.16C4.108 116.16 4.576 116.26 4.968 116.46C5.368 116.652 5.668 116.916 5.868 117.252C6.076 117.588 6.18 117.968 6.18 118.392C6.18 118.888 6.036 119.316 5.748 119.676C5.468 120.036 5.1 120.268 4.644 120.372V120.432C5.164 120.56 5.576 120.812 5.88 121.188C6.184 121.564 6.336 122.056 6.336 122.664C6.336 123.12 6.232 123.532 6.024 123.9C5.816 124.26 5.504 124.544 5.088 124.752C4.672 124.96 4.172 125.064 3.588 125.064C2.74 125.064 2.044 124.844 1.5 124.404C0.956 123.956 0.652 123.324 0.588 122.508H1.644C1.7 122.988 1.896 123.38 2.232 123.684C2.568 123.988 3.016 124.14 3.576 124.14C4.136 124.14 4.56 123.996 4.848 123.708C5.144 123.412 5.292 123.032 5.292 122.568C5.292 121.968 5.092 121.536 4.692 121.272C4.292 121.008 3.688 120.876 2.88 120.876H2.604V119.964H2.892C3.628 119.956 4.184 119.836 4.56 119.604C4.936 119.364 5.124 118.996 5.124 118.5C5.124 118.076 4.984 117.736 4.704 117.48C4.432 117.224 4.04 117.096 3.528 117.096C3.032 117.096 2.632 117.224 2.328 117.48C2.024 117.736 1.844 118.08 1.788 118.512H0.72ZM7.61041 120.576C7.61041 119.2 7.83441 118.128 8.28241 117.36C8.73041 116.584 9.51441 116.196 10.6344 116.196C11.7464 116.196 12.5264 116.584 12.9744 117.36C13.4224 118.128 13.6464 119.2 13.6464 120.576C13.6464 121.976 13.4224 123.064 12.9744 123.84C12.5264 124.616 11.7464 125.004 10.6344 125.004C9.51441 125.004 8.73041 124.616 8.28241 123.84C7.83441 123.064 7.61041 121.976 7.61041 120.576ZM12.5664 120.576C12.5664 119.88 12.5184 119.292 12.4224 118.812C12.3344 118.324 12.1464 117.932 11.8584 117.636C11.5784 117.34 11.1704 117.192 10.6344 117.192C10.0904 117.192 9.67441 117.34 9.38641 117.636C9.10641 117.932 8.91841 118.324 8.82241 118.812C8.73441 119.292 8.69041 119.88 8.69041 120.576C8.69041 121.296 8.73441 121.9 8.82241 122.388C8.91841 122.876 9.10641 123.268 9.38641 123.564C9.67441 123.86 10.0904 124.008 10.6344 124.008C11.1704 124.008 11.5784 123.86 11.8584 123.564C12.1464 123.268 12.3344 122.876 12.4224 122.388C12.5184 121.9 12.5664 121.296 12.5664 120.576ZM18.7976 125.004L16.2176 122.1V125.004H15.1256V116.124H16.2176V121.344L18.7496 118.428H20.2736L17.1776 121.704L20.2856 125.004H18.7976Z" fill="#828282"/>
<path d="M0.48 85.7379V84.9099L4.692 79.0779H6V84.7899H7.2V85.7379H6V87.6699H4.92V85.7379H0.48ZM4.968 80.2179L1.74 84.7899H4.968V80.2179ZM8.09088 83.2419C8.09088 81.8659 8.31488 80.7939 8.76288 80.0259C9.21088 79.2499 9.99488 78.8619 11.1149 78.8619C12.2269 78.8619 13.0069 79.2499 13.4549 80.0259C13.9029 80.7939 14.1269 81.8659 14.1269 83.2419C14.1269 84.6419 13.9029 85.7299 13.4549 86.5059C13.0069 87.2819 12.2269 87.6699 11.1149 87.6699C9.99488 87.6699 9.21088 87.2819 8.76288 86.5059C8.31488 85.7299 8.09088 84.6419 8.09088 83.2419ZM13.0469 83.2419C13.0469 82.5459 12.9989 81.9579 12.9029 81.4779C12.8149 80.9899 12.6269 80.5979 12.3389 80.3019C12.0589 80.0059 11.6509 79.8579 11.1149 79.8579C10.5709 79.8579 10.1549 80.0059 9.86688 80.3019C9.58688 80.5979 9.39888 80.9899 9.30288 81.4779C9.21488 81.9579 9.17088 82.5459 9.17088 83.2419C9.17088 83.9619 9.21488 84.5659 9.30288 85.0539C9.39888 85.5419 9.58688 85.9339 9.86688 86.2299C10.1549 86.5259 10.5709 86.6739 11.1149 86.6739C11.6509 86.6739 12.0589 86.5259 12.3389 86.2299C12.6269 85.9339 12.8149 85.5419 12.9029 85.0539C12.9989 84.5659 13.0469 83.9619 13.0469 83.2419ZM19.278 87.6699L16.698 84.7659V87.6699H15.606V78.7899H16.698V84.0099L19.23 81.0939H20.754L17.658 84.3699L20.766 87.6699H19.278Z" fill="#828282"/>
<path d="M6.276 42.6067H2.064V45.3427C2.248 45.0867 2.52 44.8787 2.88 44.7187C3.24 44.5507 3.628 44.4667 4.044 44.4667C4.708 44.4667 5.248 44.6067 5.664 44.8867C6.08 45.1587 6.376 45.5147 6.552 45.9547C6.736 46.3867 6.828 46.8467 6.828 47.3347C6.828 47.9107 6.72 48.4267 6.504 48.8827C6.288 49.3387 5.956 49.6987 5.508 49.9627C5.068 50.2267 4.52 50.3587 3.864 50.3587C3.024 50.3587 2.344 50.1427 1.824 49.7107C1.304 49.2787 0.988 48.7027 0.876 47.9827H1.944C2.048 48.4387 2.268 48.7947 2.604 49.0507C2.94 49.3067 3.364 49.4347 3.876 49.4347C4.508 49.4347 4.984 49.2467 5.304 48.8707C5.624 48.4867 5.784 47.9827 5.784 47.3587C5.784 46.7347 5.624 46.2547 5.304 45.9187C4.984 45.5747 4.512 45.4027 3.888 45.4027C3.464 45.4027 3.092 45.5067 2.772 45.7147C2.46 45.9147 2.232 46.1907 2.088 46.5427H1.056V41.6467H6.276V42.6067ZM8.07916 45.9067C8.07916 44.5307 8.30316 43.4587 8.75116 42.6907C9.19916 41.9147 9.98316 41.5267 11.1032 41.5267C12.2152 41.5267 12.9952 41.9147 13.4432 42.6907C13.8912 43.4587 14.1152 44.5307 14.1152 45.9067C14.1152 47.3067 13.8912 48.3947 13.4432 49.1707C12.9952 49.9467 12.2152 50.3347 11.1032 50.3347C9.98316 50.3347 9.19916 49.9467 8.75116 49.1707C8.30316 48.3947 8.07916 47.3067 8.07916 45.9067ZM13.0352 45.9067C13.0352 45.2107 12.9872 44.6227 12.8912 44.1427C12.8032 43.6547 12.6152 43.2627 12.3272 42.9667C12.0472 42.6707 11.6392 42.5227 11.1032 42.5227C10.5592 42.5227 10.1432 42.6707 9.85516 42.9667C9.57516 43.2627 9.38716 43.6547 9.29116 44.1427C9.20316 44.6227 9.15916 45.2107 9.15916 45.9067C9.15916 46.6267 9.20316 47.2307 9.29116 47.7187C9.38716 48.2067 9.57516 48.5987 9.85516 48.8947C10.1432 49.1907 10.5592 49.3387 11.1032 49.3387C11.6392 49.3387 12.0472 49.1907 12.3272 48.8947C12.6152 48.5987 12.8032 48.2067 12.8912 47.7187C12.9872 47.2307 13.0352 46.6267 13.0352 45.9067ZM19.2663 50.3347L16.6863 47.4307V50.3347H15.5943V41.4547H16.6863V46.6747L19.2183 43.7587H20.7423L17.6463 47.0347L20.7543 50.3347H19.2663Z" fill="#828282"/>
<path d="M5.58 6.388C5.404 5.5 4.856 5.056 3.936 5.056C3.224 5.056 2.692 5.332 2.34 5.884C1.988 6.428 1.816 7.328 1.824 8.584C2.008 8.168 2.312 7.844 2.736 7.612C3.168 7.372 3.648 7.252 4.176 7.252C5 7.252 5.656 7.508 6.144 8.02C6.64 8.532 6.888 9.24 6.888 10.144C6.888 10.688 6.78 11.176 6.564 11.608C6.356 12.04 6.036 12.384 5.604 12.64C5.18 12.896 4.664 13.024 4.056 13.024C3.232 13.024 2.588 12.84 2.124 12.472C1.66 12.104 1.336 11.596 1.152 10.948C0.968 10.3 0.876 9.5 0.876 8.548C0.876 5.612 1.9 4.144 3.948 4.144C4.732 4.144 5.348 4.356 5.796 4.78C6.244 5.204 6.508 5.74 6.588 6.388H5.58ZM3.948 8.176C3.604 8.176 3.28 8.248 2.976 8.392C2.672 8.528 2.424 8.74 2.232 9.028C2.048 9.308 1.956 9.652 1.956 10.06C1.956 10.668 2.132 11.164 2.484 11.548C2.836 11.924 3.34 12.112 3.996 12.112C4.556 12.112 5 11.94 5.328 11.596C5.664 11.244 5.832 10.772 5.832 10.18C5.832 9.556 5.672 9.068 5.352 8.716C5.032 8.356 4.564 8.176 3.948 8.176ZM8.16119 8.572C8.16119 7.196 8.38519 6.124 8.83319 5.356C9.28119 4.58 10.0652 4.192 11.1852 4.192C12.2972 4.192 13.0772 4.58 13.5252 5.356C13.9732 6.124 14.1972 7.196 14.1972 8.572C14.1972 9.972 13.9732 11.06 13.5252 11.836C13.0772 12.612 12.2972 13 11.1852 13C10.0652 13 9.28119 12.612 8.83319 11.836C8.38519 11.06 8.16119 9.972 8.16119 8.572ZM13.1172 8.572C13.1172 7.876 13.0692 7.288 12.9732 6.808C12.8852 6.32 12.6972 5.928 12.4092 5.632C12.1292 5.336 11.7212 5.188 11.1852 5.188C10.6412 5.188 10.2252 5.336 9.93719 5.632C9.65719 5.928 9.46919 6.32 9.37319 6.808C9.28519 7.288 9.24119 7.876 9.24119 8.572C9.24119 9.292 9.28519 9.896 9.37319 10.384C9.46919 10.872 9.65719 11.264 9.93719 11.56C10.2252 11.856 10.6412 12.004 11.1852 12.004C11.7212 12.004 12.1292 11.856 12.4092 11.56C12.6972 11.264 12.8852 10.872 12.9732 10.384C13.0692 9.896 13.1172 9.292 13.1172 8.572ZM19.3483 13L16.7683 10.096V13H15.6763V4.12H16.7683V9.34L19.3003 6.424H20.8243L17.7283 9.7L20.8363 13H19.3483Z" fill="#828282"/>
<path d="M54.2934 245.348V251.528C54.2934 252.216 54.0814 252.768 53.6574 253.184C53.2334 253.592 52.6734 253.796 51.9774 253.796C51.2734 253.796 50.7094 253.588 50.2854 253.172C49.8614 252.748 49.6494 252.172 49.6494 251.444H50.7414C50.7494 251.852 50.8534 252.184 51.0534 252.44C51.2614 252.696 51.5694 252.824 51.9774 252.824C52.3854 252.824 52.6894 252.704 52.8894 252.464C53.0894 252.216 53.1894 251.904 53.1894 251.528V245.348H54.2934ZM61.1886 251.852H57.5406L56.8686 253.712H55.7166L58.7406 245.396H60.0006L63.0126 253.712H61.8606L61.1886 251.852ZM60.8766 250.964L59.3646 246.74L57.8526 250.964H60.8766ZM70.7066 253.712H69.6146L65.2226 247.052V253.712H64.1306V245.336H65.2226L69.6146 251.984V245.336H70.7066V253.712Z" fill="#828282"/>
<path d="M102.921 245.348V246.236H99.2849V249.056H102.237V249.944H99.2849V253.712H98.1929V245.348H102.921ZM105.132 246.236V249.032H108.18V249.932H105.132V252.812H108.54V253.712H104.04V245.336H108.54V246.236H105.132ZM114.18 249.404C114.484 249.452 114.76 249.576 115.008 249.776C115.264 249.976 115.464 250.224 115.608 250.52C115.76 250.816 115.836 251.132 115.836 251.468C115.836 251.892 115.728 252.276 115.512 252.62C115.296 252.956 114.98 253.224 114.564 253.424C114.156 253.616 113.672 253.712 113.112 253.712H109.992V245.348H112.992C113.56 245.348 114.044 245.444 114.444 245.636C114.844 245.82 115.144 246.072 115.344 246.392C115.544 246.712 115.644 247.072 115.644 247.472C115.644 247.968 115.508 248.38 115.236 248.708C114.972 249.028 114.62 249.26 114.18 249.404ZM111.084 248.96H112.92C113.432 248.96 113.828 248.84 114.108 248.6C114.388 248.36 114.528 248.028 114.528 247.604C114.528 247.18 114.388 246.848 114.108 246.608C113.828 246.368 113.424 246.248 112.896 246.248H111.084V248.96ZM113.016 252.812C113.56 252.812 113.984 252.684 114.288 252.428C114.592 252.172 114.744 251.816 114.744 251.36C114.744 250.896 114.584 250.532 114.264 250.268C113.944 249.996 113.516 249.86 112.98 249.86H111.084V252.812H113.016Z" fill="#828282"/>
<path d="M152.697 245.408V253.712H151.605V247.52L148.845 253.712H148.077L145.305 247.508V253.712H144.213V245.408H145.389L148.461 252.272L151.533 245.408H152.697ZM159.293 251.852H155.645L154.973 253.712H153.821L156.845 245.396H158.105L161.117 253.712H159.965L159.293 251.852ZM158.981 250.964L157.469 246.74L155.957 250.964H158.981ZM166.638 253.712L164.646 250.292H163.326V253.712H162.234V245.348H164.934C165.566 245.348 166.098 245.456 166.53 245.672C166.97 245.888 167.298 246.18 167.514 246.548C167.73 246.916 167.838 247.336 167.838 247.808C167.838 248.384 167.67 248.892 167.334 249.332C167.006 249.772 166.51 250.064 165.846 250.208L167.946 253.712H166.638ZM163.326 249.416H164.934C165.526 249.416 165.97 249.272 166.266 248.984C166.562 248.688 166.71 248.296 166.71 247.808C166.71 247.312 166.562 246.928 166.266 246.656C165.978 246.384 165.534 246.248 164.934 246.248H163.326V249.416Z" fill="#828282"/>
<path d="M194.13 251.852H190.482L189.81 253.712H188.658L191.682 245.396H192.942L195.954 253.712H194.802L194.13 251.852ZM193.818 250.964L192.306 246.74L190.794 250.964H193.818ZM202.664 247.796C202.664 248.492 202.424 249.072 201.944 249.536C201.472 249.992 200.748 250.22 199.772 250.22H198.164V253.712H197.072V245.348H199.772C200.716 245.348 201.432 245.576 201.92 246.032C202.416 246.488 202.664 247.076 202.664 247.796ZM199.772 249.32C200.38 249.32 200.828 249.188 201.116 248.924C201.404 248.66 201.548 248.284 201.548 247.796C201.548 246.764 200.956 246.248 199.772 246.248H198.164V249.32H199.772ZM208.225 253.712L206.233 250.292H204.913V253.712H203.821V245.348H206.521C207.153 245.348 207.685 245.456 208.117 245.672C208.557 245.888 208.885 246.18 209.101 246.548C209.317 246.916 209.425 247.336 209.425 247.808C209.425 248.384 209.257 248.892 208.921 249.332C208.593 249.772 208.097 250.064 207.433 250.208L209.533 253.712H208.225ZM204.913 249.416H206.521C207.113 249.416 207.557 249.272 207.853 248.984C208.149 248.688 208.297 248.296 208.297 247.808C208.297 247.312 208.149 246.928 207.853 246.656C207.565 246.384 207.121 246.248 206.521 246.248H204.913V249.416Z" fill="#828282"/>
<path d="M241.598 245.417V253.721H240.506V247.529L237.746 253.721H236.978L234.206 247.517V253.721H233.114V245.417H234.29L237.362 252.281L240.434 245.417H241.598ZM248.194 251.861H244.546L243.874 253.721H242.722L245.746 245.405H247.006L250.018 253.721H248.866L248.194 251.861ZM247.882 250.973L246.37 246.749L244.858 250.973H247.882ZM256.992 245.357L254.268 250.565V253.721H253.176V250.565L250.44 245.357H251.652L253.716 249.593L255.78 245.357H256.992Z" fill="#828282"/>
<path d="M284.392 245.348V251.528C284.392 252.216 284.18 252.768 283.756 253.184C283.332 253.592 282.772 253.796 282.076 253.796C281.372 253.796 280.808 253.588 280.384 253.172C279.96 252.748 279.748 252.172 279.748 251.444H280.84C280.848 251.852 280.952 252.184 281.152 252.44C281.36 252.696 281.668 252.824 282.076 252.824C282.484 252.824 282.788 252.704 282.988 252.464C283.188 252.216 283.288 251.904 283.288 251.528V245.348H284.392ZM287.411 245.348V250.64C287.411 251.384 287.591 251.936 287.951 252.296C288.319 252.656 288.827 252.836 289.475 252.836C290.115 252.836 290.615 252.656 290.975 252.296C291.343 251.936 291.527 251.384 291.527 250.64V245.348H292.619V250.628C292.619 251.324 292.479 251.912 292.199 252.392C291.919 252.864 291.539 253.216 291.059 253.448C290.587 253.68 290.055 253.796 289.463 253.796C288.871 253.796 288.335 253.68 287.855 253.448C287.383 253.216 287.007 252.864 286.727 252.392C286.455 251.912 286.319 251.324 286.319 250.628V245.348H287.411ZM300.817 253.712H299.725L295.333 247.052V253.712H294.241V245.336H295.333L299.725 251.984V245.336H300.817V253.712Z" fill="#828282"/>
<line x1="37.6524" y1="231.37" x2="319" y2="231.37" stroke="#7A8AED"/>
<line x1="37.6524" y1="156.7" x2="319" y2="156.7" stroke="#7A8AED" stroke-opacity="0.15"/>
<line x1="37.6524" y1="119.365" x2="319" y2="119.365" stroke="#7A8AED" stroke-opacity="0.15"/>
<line x1="37.6524" y1="82.03" x2="319" y2="82.03" stroke="#7A8AED" stroke-opacity="0.15"/>
<line x1="37.6524" y1="44.6953" x2="319" y2="44.6953" stroke="#7A8AED" stroke-opacity="0.15"/>
<line x1="37.6524" y1="7.35986" x2="319" y2="7.35986" stroke="#7A8AED" stroke-opacity="0.15"/>
<g opacity="0.24" clip-path="url(#clip0)">
<path d="M-91.1113 193.676C-110.555 193.676 -101.764 159.261 -128.394 159.261C-153.693 159.261 -145.704 207.253 -165.677 207.253C-190.643 207.253 -178.327 189.572 -202.96 189.572C-227.26 190.203 -215.942 214.831 -240.243 214.831V231.249H319V45.5952C293.701 45.5952 307.016 71.8015 281.717 72.1172C256.418 72.4329 271.822 54.4359 244.434 54.4359C221.133 54.4359 232.118 83.4837 207.151 83.4837C182.185 83.4837 191.173 116.32 169.869 116.32C146.314 116.32 160.862 72.1172 132.586 72.1172C104.309 72.1172 121.024 125.793 95.3029 125.793C68.3394 125.793 82.9863 97.3762 58.0201 97.3762C30.7237 97.3762 49.0135 128.003 21.0701 128.003C-10.1232 128.003 9.0863 164.313 -16.5457 164.313C-42.1776 164.313 -29.7738 143.79 -53.8285 143.79C-79.1276 143.79 -66.3277 193.676 -91.1113 193.676Z" fill="url(#paint0_linear)"/>
</g>
<g clip-path="url(#clip1)">
<path d="M319 45.5952C293.701 45.5952 307.016 71.8014 281.717 72.1172C256.418 72.4329 271.822 54.4359 244.434 54.4359C221.133 54.4359 232.118 83.4837 207.151 83.4837C182.185 83.4837 191.173 116.32 169.869 116.32C146.314 116.32 160.862 72.1172 132.586 72.1172C104.309 72.1172 121.024 125.793 95.3029 125.793C68.3394 125.793 82.9862 97.3762 58.0201 97.3762C30.7237 97.3762 49.0135 128.003 21.0701 128.003C-10.1232 128.003 9.08632 164.313 -16.5456 164.313C-42.1776 164.313 -29.7738 143.79 -53.8285 143.79C-79.1276 143.79 -66.3277 193.676 -91.1113 193.676C-110.555 193.676 -101.764 159.261 -128.394 159.261C-153.693 159.261 -145.704 207.253 -165.677 207.253C-190.643 207.253 -178.327 189.572 -202.96 189.572C-227.26 190.203 -215.942 214.831 -240.243 214.831" stroke="url(#paint1_linear)" stroke-width="1.33153" stroke-linecap="round" stroke-linejoin="round"/>
</g>
<rect width="8" height="8" rx="4" transform="matrix(-1 0 0 1 248.418 50.8635)" fill="#537CE5"/>
<rect width="5" height="5" rx="2.5" transform="matrix(-1 0 0 1 247.087 52.1951)" fill="white"/>
<rect width="8" height="8" rx="4" transform="matrix(-1 0 0 1 99.2867 122.22)" fill="url(#paint2_linear)"/>
<rect width="5" height="5" rx="2.5" transform="matrix(-1 0 0 1 97.9551 123.552)" fill="white"/>
<rect x="95" y="108" width="8" height="8" rx="1" transform="rotate(45 95 108)" fill="#4F4F4F"/>
<rect x="75" y="82" width="40" height="32" rx="3" fill="#4F4F4F"/>
<path d="M83.3867 98.176C83.9547 98.176 84.3787 98.048 84.6587 97.792C84.9467 97.528 85.0907 97.192 85.0907 96.784V96.7C85.0907 96.26 84.9507 95.932 84.6707 95.716C84.3987 95.492 84.0387 95.38 83.5907 95.38C83.1587 95.38 82.8067 95.476 82.5347 95.668C82.2627 95.852 82.0387 96.104 81.8627 96.424L81.1187 95.848C81.2227 95.68 81.3467 95.516 81.4907 95.356C81.6427 95.188 81.8187 95.04 82.0187 94.912C82.2187 94.784 82.4507 94.68 82.7147 94.6C82.9787 94.52 83.2787 94.48 83.6147 94.48C83.9667 94.48 84.2987 94.528 84.6107 94.624C84.9227 94.712 85.1907 94.848 85.4147 95.032C85.6467 95.208 85.8267 95.428 85.9547 95.692C86.0907 95.956 86.1587 96.256 86.1587 96.592C86.1587 96.864 86.1147 97.108 86.0267 97.324C85.9467 97.54 85.8347 97.728 85.6907 97.888C85.5467 98.048 85.3747 98.184 85.1747 98.296C84.9827 98.408 84.7747 98.492 84.5507 98.548V98.596C84.7747 98.644 84.9907 98.724 85.1987 98.836C85.4147 98.94 85.6027 99.08 85.7627 99.256C85.9307 99.424 86.0627 99.632 86.1587 99.88C86.2627 100.12 86.3147 100.396 86.3147 100.708C86.3147 101.068 86.2467 101.4 86.1107 101.704C85.9747 102 85.7827 102.256 85.5347 102.472C85.2867 102.68 84.9867 102.844 84.6347 102.964C84.2827 103.084 83.8947 103.144 83.4707 103.144C83.1107 103.144 82.7907 103.104 82.5107 103.024C82.2307 102.944 81.9827 102.836 81.7667 102.7C81.5507 102.564 81.3587 102.412 81.1907 102.244C81.0307 102.076 80.8867 101.9 80.7587 101.716L81.5147 101.14C81.6187 101.308 81.7307 101.46 81.8507 101.596C81.9787 101.732 82.1187 101.848 82.2707 101.944C82.4227 102.04 82.5947 102.116 82.7867 102.172C82.9787 102.22 83.2027 102.244 83.4587 102.244C84.0507 102.244 84.4987 102.112 84.8027 101.848C85.1067 101.576 85.2587 101.192 85.2587 100.696V100.6C85.2587 100.104 85.1067 99.724 84.8027 99.46C84.4987 99.188 84.0507 99.052 83.4587 99.052H82.4747V98.176H83.3867ZM88.906 103V102.112H91.246V95.368H91.162L89.05 97.336L88.462 96.7L90.682 94.624H92.254V102.112H94.414V103H88.906ZM96.4653 94.12H97.4253V99.748H97.4733L98.4213 98.692L100.173 96.808H101.337L99.0453 99.256L101.565 103H100.401L98.3493 99.844L97.4253 100.792V103H96.4653V94.12ZM105.413 103.984V103C104.805 102.96 104.289 102.812 103.865 102.556C103.449 102.292 103.093 101.964 102.797 101.572L103.505 100.936C103.761 101.28 104.041 101.556 104.345 101.764C104.657 101.964 105.017 102.092 105.425 102.148V99.064C104.601 98.88 103.997 98.612 103.613 98.26C103.237 97.9 103.049 97.408 103.049 96.784C103.049 96.464 103.105 96.18 103.217 95.932C103.337 95.676 103.501 95.456 103.709 95.272C103.917 95.088 104.165 94.944 104.453 94.84C104.741 94.728 105.061 94.656 105.413 94.624V93.64H106.157V94.612C106.701 94.66 107.169 94.8 107.561 95.032C107.961 95.256 108.305 95.568 108.593 95.968L107.861 96.52C107.661 96.24 107.421 96.012 107.141 95.836C106.861 95.652 106.529 95.532 106.145 95.476V98.284L106.253 98.308C107.085 98.492 107.689 98.764 108.065 99.124C108.449 99.476 108.641 99.968 108.641 100.6C108.641 101.288 108.417 101.844 107.969 102.268C107.529 102.684 106.925 102.928 106.157 103V103.984H105.413ZM107.693 100.66C107.693 100.252 107.573 99.94 107.333 99.724C107.101 99.508 106.705 99.332 106.145 99.196V102.148C106.625 102.084 107.001 101.924 107.273 101.668C107.553 101.404 107.693 101.068 107.693 100.66ZM103.997 96.712C103.997 97.12 104.113 97.428 104.345 97.636C104.585 97.836 104.945 98 105.425 98.128V95.476C104.993 95.532 104.645 95.664 104.381 95.872C104.125 96.08 103.997 96.36 103.997 96.712Z" fill="white"/>
<rect x="244" y="36" width="8" height="8" rx="1" transform="rotate(45 244 36)" fill="#4F4F4F"/>
<rect x="224" y="10" width="40" height="32" rx="3" fill="#4F4F4F"/>
<path d="M235.231 23.512H231.559L231.319 26.704H231.403C231.603 26.424 231.827 26.2 232.075 26.032C232.331 25.864 232.679 25.78 233.119 25.78C233.479 25.78 233.811 25.84 234.115 25.96C234.419 26.08 234.683 26.252 234.907 26.476C235.131 26.692 235.303 26.96 235.423 27.28C235.551 27.6 235.615 27.964 235.615 28.372C235.615 28.78 235.551 29.156 235.423 29.5C235.295 29.836 235.107 30.128 234.859 30.376C234.619 30.616 234.323 30.804 233.971 30.94C233.627 31.076 233.235 31.144 232.795 31.144C232.443 31.144 232.131 31.104 231.859 31.024C231.595 30.944 231.359 30.836 231.151 30.7C230.943 30.564 230.759 30.412 230.599 30.244C230.447 30.076 230.307 29.9 230.179 29.716L230.935 29.14C231.039 29.308 231.147 29.46 231.259 29.596C231.379 29.732 231.507 29.848 231.643 29.944C231.787 30.04 231.951 30.116 232.135 30.172C232.319 30.22 232.539 30.244 232.795 30.244C233.371 30.244 233.807 30.092 234.103 29.788C234.399 29.484 234.547 29.056 234.547 28.504V28.384C234.547 27.832 234.399 27.404 234.103 27.1C233.807 26.796 233.371 26.644 232.795 26.644C232.411 26.644 232.107 26.716 231.883 26.86C231.667 26.996 231.471 27.16 231.295 27.352L230.443 27.232L230.743 22.624H235.231V23.512ZM237.906 31V30.112H240.246V23.368H240.162L238.05 25.336L237.462 24.7L239.682 22.624H241.254V30.112H243.414V31H237.906ZM245.465 22.12H246.425V27.748H246.473L247.421 26.692L249.173 24.808H250.337L248.045 27.256L250.565 31H249.401L247.349 27.844L246.425 28.792V31H245.465V22.12ZM254.413 31.984V31C253.805 30.96 253.289 30.812 252.865 30.556C252.449 30.292 252.093 29.964 251.797 29.572L252.505 28.936C252.761 29.28 253.041 29.556 253.345 29.764C253.657 29.964 254.017 30.092 254.425 30.148V27.064C253.601 26.88 252.997 26.612 252.613 26.26C252.237 25.9 252.049 25.408 252.049 24.784C252.049 24.464 252.105 24.18 252.217 23.932C252.337 23.676 252.501 23.456 252.709 23.272C252.917 23.088 253.165 22.944 253.453 22.84C253.741 22.728 254.061 22.656 254.413 22.624V21.64H255.157V22.612C255.701 22.66 256.169 22.8 256.561 23.032C256.961 23.256 257.305 23.568 257.593 23.968L256.861 24.52C256.661 24.24 256.421 24.012 256.141 23.836C255.861 23.652 255.529 23.532 255.145 23.476V26.284L255.253 26.308C256.085 26.492 256.689 26.764 257.065 27.124C257.449 27.476 257.641 27.968 257.641 28.6C257.641 29.288 257.417 29.844 256.969 30.268C256.529 30.684 255.925 30.928 255.157 31V31.984H254.413ZM256.693 28.66C256.693 28.252 256.573 27.94 256.333 27.724C256.101 27.508 255.705 27.332 255.145 27.196V30.148C255.625 30.084 256.001 29.924 256.273 29.668C256.553 29.404 256.693 29.068 256.693 28.66ZM252.997 24.712C252.997 25.12 253.113 25.428 253.345 25.636C253.585 25.836 253.945 26 254.425 26.128V23.476C253.993 23.532 253.645 23.664 253.381 23.872C253.125 24.08 252.997 24.36 252.997 24.712Z" fill="white"/>
<defs>
<linearGradient id="paint0_linear" x1="319" y1="138.422" x2="-240.243" y2="138.422" gradientUnits="userSpaceOnUse">
<stop stop-color="#628DFC"/>
<stop offset="1" stop-color="#537CE5"/>
</linearGradient>
<linearGradient id="paint1_linear" x1="319" y1="130.213" x2="-240.243" y2="130.213" gradientUnits="userSpaceOnUse">
<stop stop-color="#628DFC"/>
<stop offset="1" stop-color="#537CE5"/>
</linearGradient>
<linearGradient id="paint2_linear" x1="0" y1="4" x2="8" y2="4" gradientUnits="userSpaceOnUse">
<stop stop-color="#628DFC"/>
<stop offset="1" stop-color="#537CE5"/>
</linearGradient>
<clipPath id="clip0">
<rect width="281" height="184.391" fill="white" transform="matrix(-1 0 0 1 319 46.8582)"/>
</clipPath>
<clipPath id="clip1">
<rect width="281" height="202.072" fill="white" transform="matrix(-1 0 0 1 319 29.1768)"/>
</clipPath>
</defs>
</svg>
